<?xml version="1.0" encoding="UTF-8" standalone="no"?>
<!DOCTYPE svg PUBLIC "-//W3C//DTD SVG 1.1//EN"
 "http://www.w3.org/Graphics/SVG/1.1/DTD/svg11.dtd">
<!-- Generated by graphviz version 2.36.0 (20140111.2315)
 -->
<!-- Title: IGraphics.h Pages: 1 -->
<!--zoomable 252 -->
<svg id="main" version="1.1" xmlns="http://www.w3.org/2000/svg" xmlns:xlink="http://www.w3.org/1999/xlink" xml:space="preserve" onload="init(evt)">
<style type="text/css"><![CDATA[
.edge:hover path { stroke: red; }
.edge:hover polygon { stroke: red; fill: red; }
]]></style>
<script type="text/javascript"><![CDATA[
var edges = document.getElementsByTagName('g');
if (edges && edges.length) {
  for (var i=0;i<edges.length;i++) {
    if (edges[i].id.substr(0,4)=='edge') {
      edges[i].setAttribute('class','edge');
    }
  }
}
]]></script>
        <defs>
                <circle id="rim" cx="0" cy="0" r="7"/>
                <circle id="rim2" cx="0" cy="0" r="3.5"/>
                <g id="zoomPlus">
                        <use xlink:href="#rim" fill="#404040">
                                <set attributeName="fill" to="#808080" begin="zoomplus.mouseover" end="zoomplus.mouseout"/>
                        </use>
                        <path d="M-4,0h8M0,-4v8" fill="none" stroke="white" stroke-width="1.5" pointer-events="none"/>
                </g>
                <g id="zoomMin">
                        <use xlink:href="#rim" fill="#404040">
                                <set attributeName="fill" to="#808080" begin="zoomminus.mouseover" end="zoomminus.mouseout"/>
                        </use>
                        <path d="M-4,0h8" fill="none" stroke="white" stroke-width="1.5" pointer-events="none"/>
                </g>
                <g id="dirArrow">
                        <path fill="none" stroke="white" stroke-width="1.5" d="M0,-3.0v7 M-2.5,-0.5L0,-3.0L2.5,-0.5"/>
                </g>
               <g id="resetDef">
                       <use xlink:href="#rim2" fill="#404040">
                               <set attributeName="fill" to="#808080" begin="reset.mouseover" end="reset.mouseout"/>
                       </use>
               </g>
        </defs>

<script type="text/javascript">
var viewWidth = 1382;
var viewHeight = 252;
var sectionId = 'dynsection-1';
</script>
<script xlink:href="svgpan.js"/>
<svg id="graph" class="graph">
<g id="viewport">
<title>IGraphics.h</title>
<polygon fill="white" stroke="none" points="-4,4 -4,-248 1377.79,-248 1377.79,4 -4,4"/>
<!-- Node1 -->
<g id="node1" class="node"><title>Node1</title>
<polygon fill="#bfbfbf" stroke="black" points="611.286,-224.5 611.286,-243.5 678.286,-243.5 678.286,-224.5 611.286,-224.5"/>
<text text-anchor="middle" x="644.786" y="-231.5" font-family="Helvetica,sans-Serif" font-size="10.00">IGraphics.h</text>
</g>
<!-- Node2 -->
<g id="node2" class="node"><title>Node2</title>
<g id="a_node2"><a xlink:href="_i_control_8h.html" target="_top" xlink:title="The lowest level base class of an IGraphics control. ">
<polygon fill="white" stroke="black" points="299.286,-168.5 299.286,-187.5 358.286,-187.5 358.286,-168.5 299.286,-168.5"/>
<text text-anchor="middle" x="328.786" y="-175.5" font-family="Helvetica,sans-Serif" font-size="10.00">IControl.h</text>
</a>
</g>
</g>
<!-- Node1&#45;&gt;Node2 -->
<g id="edge1" class="edge"><title>Node1&#45;&gt;Node2</title>
<path fill="none" stroke="midnightblue" d="M601.311,-225.571C536.154,-214.436 414.843,-193.706 358.707,-184.113"/>
<polygon fill="midnightblue" stroke="midnightblue" points="600.821,-229.038 611.268,-227.272 602,-222.138 600.821,-229.038"/>
</g>
<!-- Node7 -->
<g id="node7" class="node"><title>Node7</title>
<g id="a_node7"><a xlink:href="_i_graphics_8cpp_source.html" target="_top" xlink:title="IGraphics.cpp">
<polygon fill="white" stroke="black" points="26.2863,-56.5 26.2863,-75.5 103.286,-75.5 103.286,-56.5 26.2863,-56.5"/>
<text text-anchor="middle" x="64.7863" y="-63.5" font-family="Helvetica,sans-Serif" font-size="10.00">IGraphics.cpp</text>
</a>
</g>
</g>
<!-- Node1&#45;&gt;Node7 -->
<g id="edge12" class="edge"><title>Node1&#45;&gt;Node7</title>
<path fill="none" stroke="midnightblue" d="M600.842,-233.234C468.869,-232.898 80.4518,-223.98 4.78628,-132 -12.5803,-110.889 23.2111,-87.7106 46.6337,-75.5461"/>
<polygon fill="midnightblue" stroke="midnightblue" points="600.984,-236.734 610.988,-233.244 600.991,-229.734 600.984,-236.734"/>
</g>
<!-- Node11 -->
<g id="node11" class="node"><title>Node11</title>
<g id="a_node11"><a xlink:href="_i_plug_base_graphics_8cpp_source.html" target="_top" xlink:title="IPlugBaseGraphics.cpp">
<polygon fill="white" stroke="black" points="458.286,-112.5 458.286,-131.5 577.286,-131.5 577.286,-112.5 458.286,-112.5"/>
<text text-anchor="middle" x="517.786" y="-119.5" font-family="Helvetica,sans-Serif" font-size="10.00">IPlugBaseGraphics.cpp</text>
</a>
</g>
</g>
<!-- Node1&#45;&gt;Node11 -->
<g id="edge34" class="edge"><title>Node1&#45;&gt;Node11</title>
<path fill="none" stroke="midnightblue" d="M601.194,-224.278C579.093,-217.755 553.47,-206.636 536.786,-188 522.357,-171.883 518.854,-145.355 518.026,-131.708"/>
<polygon fill="midnightblue" stroke="midnightblue" points="600.488,-227.713 611.056,-226.961 602.326,-220.958 600.488,-227.713"/>
</g>
<!-- Node12 -->
<g id="node12" class="node"><title>Node12</title>
<g id="a_node12"><a xlink:href="_i_graphics_a_g_g_8h_source.html" target="_top" xlink:title="IGraphicsAGG.h">
<polygon fill="white" stroke="black" points="546.286,-168.5 546.286,-187.5 635.286,-187.5 635.286,-168.5 546.286,-168.5"/>
<text text-anchor="middle" x="590.786" y="-175.5" font-family="Helvetica,sans-Serif" font-size="10.00">IGraphicsAGG.h</text>
</a>
</g>
</g>
<!-- Node1&#45;&gt;Node12 -->
<g id="edge13" class="edge"><title>Node1&#45;&gt;Node12</title>
<path fill="none" stroke="midnightblue" d="M628.789,-217.002C619.219,-207.433 607.425,-195.639 599.537,-187.751"/>
<polygon fill="midnightblue" stroke="midnightblue" points="626.323,-219.487 635.869,-224.083 631.273,-214.537 626.323,-219.487"/>
</g>
<!-- Node14 -->
<g id="node14" class="node"><title>Node14</title>
<g id="a_node14"><a xlink:href="_i_graphics_cairo_8h_source.html" target="_top" xlink:title="IGraphicsCairo.h">
<polygon fill="white" stroke="black" points="653.786,-168.5 653.786,-187.5 743.786,-187.5 743.786,-168.5 653.786,-168.5"/>
<text text-anchor="middle" x="698.786" y="-175.5" font-family="Helvetica,sans-Serif" font-size="10.00">IGraphicsCairo.h</text>
</a>
</g>
</g>
<!-- Node1&#45;&gt;Node14 -->
<g id="edge15" class="edge"><title>Node1&#45;&gt;Node14</title>
<path fill="none" stroke="midnightblue" d="M660.784,-217.002C670.353,-207.433 682.147,-195.639 690.035,-187.751"/>
<polygon fill="midnightblue" stroke="midnightblue" points="658.299,-214.537 653.703,-224.083 663.249,-219.487 658.299,-214.537"/>
</g>
<!-- Node16 -->
<g id="node16" class="node"><title>Node16</title>
<g id="a_node16"><a xlink:href="_i_graphics_nano_s_v_g_8h_source.html" target="_top" xlink:title="IGraphicsNanoSVG.h">
<polygon fill="white" stroke="black" points="762.286,-168.5 762.286,-187.5 873.286,-187.5 873.286,-168.5 762.286,-168.5"/>
<text text-anchor="middle" x="817.786" y="-175.5" font-family="Helvetica,sans-Serif" font-size="10.00">IGraphicsNanoSVG.h</text>
</a>
</g>
</g>
<!-- Node1&#45;&gt;Node16 -->
<g id="edge17" class="edge"><title>Node1&#45;&gt;Node16</title>
<path fill="none" stroke="midnightblue" d="M681.833,-221.436C714.451,-211.255 761.196,-196.664 790.502,-187.516"/>
<polygon fill="midnightblue" stroke="midnightblue" points="680.702,-218.123 672.199,-224.444 682.787,-224.805 680.702,-218.123"/>
</g>
<!-- Node18 -->
<g id="node18" class="node"><title>Node18</title>
<g id="a_node18"><a xlink:href="_i_graphics_lice_8h_source.html" target="_top" xlink:title="IGraphicsLice.h">
<polygon fill="white" stroke="black" points="1068.29,-168.5 1068.29,-187.5 1153.29,-187.5 1153.29,-168.5 1068.29,-168.5"/>
<text text-anchor="middle" x="1110.79" y="-175.5" font-family="Helvetica,sans-Serif" font-size="10.00">IGraphicsLice.h</text>
</a>
</g>
</g>
<!-- Node1&#45;&gt;Node18 -->
<g id="edge20" class="edge"><title>Node1&#45;&gt;Node18</title>
<path fill="none" stroke="midnightblue" d="M688.338,-227.953C777.44,-217.628 979.584,-194.204 1068.02,-183.956"/>
<polygon fill="midnightblue" stroke="midnightblue" points="687.83,-224.489 678.3,-229.116 688.636,-231.442 687.83,-224.489"/>
</g>
<!-- Node24 -->
<g id="node24" class="node"><title>Node24</title>
<g id="a_node24"><a xlink:href="_i_graphics_nano_v_g_8h_source.html" target="_top" xlink:title="IGraphicsNanoVG.h">
<polygon fill="white" stroke="black" points="891.786,-168.5 891.786,-187.5 995.786,-187.5 995.786,-168.5 891.786,-168.5"/>
<text text-anchor="middle" x="943.786" y="-175.5" font-family="Helvetica,sans-Serif" font-size="10.00">IGraphicsNanoVG.h</text>
</a>
</g>
</g>
<!-- Node1&#45;&gt;Node24 -->
<g id="edge32" class="edge"><title>Node1&#45;&gt;Node24</title>
<path fill="none" stroke="midnightblue" d="M688.391,-225.125C743.934,-215.094 839.557,-197.824 896.712,-187.502"/>
<polygon fill="midnightblue" stroke="midnightblue" points="687.723,-221.689 678.504,-226.91 688.967,-228.577 687.723,-221.689"/>
</g>
<!-- Node3 -->
<g id="node3" class="node"><title>Node3</title>
<g id="a_node3"><a xlink:href="_i_control_8cpp_source.html" target="_top" xlink:title="IControl.cpp">
<polygon fill="white" stroke="black" points="293.786,-112.5 293.786,-131.5 363.786,-131.5 363.786,-112.5 293.786,-112.5"/>
<text text-anchor="middle" x="328.786" y="-119.5" font-family="Helvetica,sans-Serif" font-size="10.00">IControl.cpp</text>
</a>
</g>
</g>
<!-- Node2&#45;&gt;Node3 -->
<g id="edge2" class="edge"><title>Node2&#45;&gt;Node3</title>
<path fill="none" stroke="midnightblue" d="M328.786,-157.805C328.786,-148.91 328.786,-138.78 328.786,-131.751"/>
<polygon fill="midnightblue" stroke="midnightblue" points="325.286,-158.083 328.786,-168.083 332.286,-158.083 325.286,-158.083"/>
</g>
<!-- Node4 -->
<g id="node4" class="node"><title>Node4</title>
<g id="a_node4"><a xlink:href="_i_controls_8h.html" target="_top" xlink:title="A collection of IControls for common UI widgets, such as knobs, sliders, switches. ">
<polygon fill="white" stroke="black" points="210.286,-112.5 210.286,-131.5 275.286,-131.5 275.286,-112.5 210.286,-112.5"/>
<text text-anchor="middle" x="242.786" y="-119.5" font-family="Helvetica,sans-Serif" font-size="10.00">IControls.h</text>
</a>
</g>
</g>
<!-- Node2&#45;&gt;Node4 -->
<g id="edge3" class="edge"><title>Node2&#45;&gt;Node4</title>
<path fill="none" stroke="midnightblue" d="M306.332,-162.901C290.562,-152.999 269.973,-140.071 256.569,-131.655"/>
<polygon fill="midnightblue" stroke="midnightblue" points="304.639,-165.97 314.969,-168.324 308.361,-160.042 304.639,-165.97"/>
</g>
<!-- Node6 -->
<g id="node6" class="node"><title>Node6</title>
<g id="a_node6"><a xlink:href="_i_graphics_live_edit_8h_source.html" target="_top" xlink:title="IGraphicsLiveEdit.h">
<polygon fill="white" stroke="black" points="13.7863,-112.5 13.7863,-131.5 115.786,-131.5 115.786,-112.5 13.7863,-112.5"/>
<text text-anchor="middle" x="64.7863" y="-119.5" font-family="Helvetica,sans-Serif" font-size="10.00">IGraphicsLiveEdit.h</text>
</a>
</g>
</g>
<!-- Node2&#45;&gt;Node6 -->
<g id="edge5" class="edge"><title>Node2&#45;&gt;Node6</title>
<path fill="none" stroke="midnightblue" d="M289.346,-168.933C240.276,-158.896 156.853,-141.832 106.673,-131.568"/>
<polygon fill="midnightblue" stroke="midnightblue" points="288.772,-172.388 299.271,-170.963 290.175,-165.53 288.772,-172.388"/>
</g>
<!-- Node2&#45;&gt;Node7 -->
<g id="edge7" class="edge"><title>Node2&#45;&gt;Node7</title>
<path fill="none" stroke="midnightblue" d="M289.291,-169.326C256.002,-162.073 207.572,-149.66 167.786,-132 132.032,-116.13 94.164,-89.2518 75.9092,-75.5638"/>
<polygon fill="midnightblue" stroke="midnightblue" points="288.601,-172.757 299.11,-171.411 290.055,-165.91 288.601,-172.757"/>
</g>
<!-- Node8 -->
<g id="node8" class="node"><title>Node8</title>
<g id="a_node8"><a xlink:href="_i_graphics_mac_8mm_source.html" target="_top" xlink:title="IGraphicsMac.mm">
<polygon fill="white" stroke="black" points="917.286,-0.5 917.286,-19.5 1014.29,-19.5 1014.29,-0.5 917.286,-0.5"/>
<text text-anchor="middle" x="965.786" y="-7.5" font-family="Helvetica,sans-Serif" font-size="10.00">IGraphicsMac.mm</text>
</a>
</g>
</g>
<!-- Node2&#45;&gt;Node8 -->
<g id="edge8" class="edge"><title>Node2&#45;&gt;Node8</title>
<path fill="none" stroke="midnightblue" d="M343.293,-160.584C357.622,-145.474 380.944,-123.688 405.786,-112 581.216,-29.4613 816.776,-14.1157 917.178,-11.4487"/>
<polygon fill="midnightblue" stroke="midnightblue" points="340.496,-158.455 336.305,-168.185 345.65,-163.192 340.496,-158.455"/>
</g>
<!-- Node9 -->
<g id="node9" class="node"><title>Node9</title>
<g id="a_node9"><a xlink:href="_i_graphics_mac__view_8mm_source.html" target="_top" xlink:title="IGraphicsMac_view.mm">
<polygon fill="white" stroke="black" points="469.786,-0.5 469.786,-19.5 591.786,-19.5 591.786,-0.5 469.786,-0.5"/>
<text text-anchor="middle" x="530.786" y="-7.5" font-family="Helvetica,sans-Serif" font-size="10.00">IGraphicsMac_view.mm</text>
</a>
</g>
</g>
<!-- Node2&#45;&gt;Node9 -->
<g id="edge9" class="edge"><title>Node2&#45;&gt;Node9</title>
<path fill="none" stroke="midnightblue" d="M289.092,-174.743C259.402,-170.725 220.641,-160.026 200.786,-132 181.26,-104.438 178.574,-81.4469 200.786,-56 234.96,-16.8496 383.838,-10.4925 469.493,-10.1787"/>
<polygon fill="midnightblue" stroke="midnightblue" points="288.835,-178.236 299.17,-175.903 289.636,-171.282 288.835,-178.236"/>
</g>
<!-- Node10 -->
<g id="node10" class="node"><title>Node10</title>
<g id="a_node10"><a xlink:href="_i_graphics_win_8cpp_source.html" target="_top" xlink:title="IGraphicsWin.cpp">
<polygon fill="white" stroke="black" points="1063.29,-56.5 1063.29,-75.5 1158.29,-75.5 1158.29,-56.5 1063.29,-56.5"/>
<text text-anchor="middle" x="1110.79" y="-63.5" font-family="Helvetica,sans-Serif" font-size="10.00">IGraphicsWin.cpp</text>
</a>
</g>
</g>
<!-- Node2&#45;&gt;Node10 -->
<g id="edge10" class="edge"><title>Node2&#45;&gt;Node10</title>
<path fill="none" stroke="midnightblue" d="M351.664,-163.074C380.579,-145.746 428.967,-117.732 448.786,-112 564.104,-78.6454 868.035,-84.3802 987.786,-76 1012.67,-74.2587 1040.38,-72.2384 1063.19,-70.5536"/>
<polygon fill="midnightblue" stroke="midnightblue" points="349.78,-160.123 343.021,-168.282 353.393,-166.118 349.78,-160.123"/>
</g>
<!-- Node2&#45;&gt;Node11 -->
<g id="edge11" class="edge"><title>Node2&#45;&gt;Node11</title>
<path fill="none" stroke="midnightblue" d="M368.366,-165.692C403.984,-155.515 455.544,-140.783 487.839,-131.556"/>
<polygon fill="midnightblue" stroke="midnightblue" points="366.971,-162.45 358.318,-168.562 368.894,-169.181 366.971,-162.45"/>
</g>
<!-- Node5 -->
<g id="node5" class="node"><title>Node5</title>
<g id="a_node5"><a xlink:href="_i_controls_8cpp_source.html" target="_top" xlink:title="IControls.cpp">
<polygon fill="white" stroke="black" points="210.286,-56.5 210.286,-75.5 285.286,-75.5 285.286,-56.5 210.286,-56.5"/>
<text text-anchor="middle" x="247.786" y="-63.5" font-family="Helvetica,sans-Serif" font-size="10.00">IControls.cpp</text>
</a>
</g>
</g>
<!-- Node4&#45;&gt;Node5 -->
<g id="edge4" class="edge"><title>Node4&#45;&gt;Node5</title>
<path fill="none" stroke="midnightblue" d="M244.536,-102.101C245.366,-93.1357 246.318,-82.8579 246.976,-75.7511"/>
<polygon fill="midnightblue" stroke="midnightblue" points="241.049,-101.803 243.612,-112.083 248.019,-102.448 241.049,-101.803"/>
</g>
<!-- Node6&#45;&gt;Node7 -->
<g id="edge6" class="edge"><title>Node6&#45;&gt;Node7</title>
<path fill="none" stroke="midnightblue" d="M64.7863,-101.805C64.7863,-92.9102 64.7863,-82.7798 64.7863,-75.7511"/>
<polygon fill="midnightblue" stroke="midnightblue" points="61.2864,-102.083 64.7863,-112.083 68.2864,-102.083 61.2864,-102.083"/>
</g>
<!-- Node13 -->
<g id="node13" class="node"><title>Node13</title>
<g id="a_node13"><a xlink:href="_i_graphics_a_g_g_8cpp_source.html" target="_top" xlink:title="IGraphicsAGG.cpp">
<polygon fill="white" stroke="black" points="595.286,-112.5 595.286,-131.5 694.286,-131.5 694.286,-112.5 595.286,-112.5"/>
<text text-anchor="middle" x="644.786" y="-119.5" font-family="Helvetica,sans-Serif" font-size="10.00">IGraphicsAGG.cpp</text>
</a>
</g>
</g>
<!-- Node12&#45;&gt;Node13 -->
<g id="edge14" class="edge"><title>Node12&#45;&gt;Node13</title>
<path fill="none" stroke="midnightblue" d="M606.784,-161.002C616.353,-151.433 628.147,-139.639 636.035,-131.751"/>
<polygon fill="midnightblue" stroke="midnightblue" points="604.299,-158.537 599.703,-168.083 609.249,-163.487 604.299,-158.537"/>
</g>
<!-- Node15 -->
<g id="node15" class="node"><title>Node15</title>
<g id="a_node15"><a xlink:href="_i_graphics_cairo_8cpp_source.html" target="_top" xlink:title="IGraphicsCairo.cpp">
<polygon fill="white" stroke="black" points="712.286,-112.5 712.286,-131.5 813.286,-131.5 813.286,-112.5 712.286,-112.5"/>
<text text-anchor="middle" x="762.786" y="-119.5" font-family="Helvetica,sans-Serif" font-size="10.00">IGraphicsCairo.cpp</text>
</a>
</g>
</g>
<!-- Node14&#45;&gt;Node15 -->
<g id="edge16" class="edge"><title>Node14&#45;&gt;Node15</title>
<path fill="none" stroke="midnightblue" d="M716.778,-161.82C728.244,-152.145 742.7,-139.948 752.316,-131.834"/>
<polygon fill="midnightblue" stroke="midnightblue" points="714.455,-159.2 709.069,-168.324 718.969,-164.55 714.455,-159.2"/>
</g>
<!-- Node16&#45;&gt;Node15 -->
<g id="edge18" class="edge"><title>Node16&#45;&gt;Node15</title>
<path fill="none" stroke="midnightblue" d="M801.492,-161.002C791.746,-151.433 779.733,-139.639 771.699,-131.751"/>
<polygon fill="midnightblue" stroke="midnightblue" points="799.116,-163.575 808.704,-168.083 804.021,-158.58 799.116,-163.575"/>
</g>
<!-- Node17 -->
<g id="node17" class="node"><title>Node17</title>
<g id="a_node17"><a xlink:href="_i_graphics_nano_v_g_8cpp_source.html" target="_top" xlink:title="IGraphicsNanoVG.cpp">
<polygon fill="white" stroke="black" points="831.286,-112.5 831.286,-131.5 946.286,-131.5 946.286,-112.5 831.286,-112.5"/>
<text text-anchor="middle" x="888.786" y="-119.5" font-family="Helvetica,sans-Serif" font-size="10.00">IGraphicsNanoVG.cpp</text>
</a>
</g>
</g>
<!-- Node16&#45;&gt;Node17 -->
<g id="edge19" class="edge"><title>Node16&#45;&gt;Node17</title>
<path fill="none" stroke="midnightblue" d="M837.376,-162.101C850.154,-152.382 866.399,-140.027 877.171,-131.834"/>
<polygon fill="midnightblue" stroke="midnightblue" points="835.034,-159.484 829.194,-168.324 839.272,-165.056 835.034,-159.484"/>
</g>
<!-- Node19 -->
<g id="node19" class="node"><title>Node19</title>
<g id="a_node19"><a xlink:href="_i_graphics_lice_8cpp_source.html" target="_top" xlink:title="IGraphicsLice.cpp">
<polygon fill="white" stroke="black" points="1279.29,-112.5 1279.29,-131.5 1374.29,-131.5 1374.29,-112.5 1279.29,-112.5"/>
<text text-anchor="middle" x="1326.79" y="-119.5" font-family="Helvetica,sans-Serif" font-size="10.00">IGraphicsLice.cpp</text>
</a>
</g>
</g>
<!-- Node18&#45;&gt;Node19 -->
<g id="edge21" class="edge"><title>Node18&#45;&gt;Node19</title>
<path fill="none" stroke="midnightblue" d="M1154.95,-165.959C1195.75,-155.76 1255.5,-140.822 1292.72,-131.516"/>
<polygon fill="midnightblue" stroke="midnightblue" points="1153.86,-162.623 1145.01,-168.444 1155.56,-169.414 1153.86,-162.623"/>
</g>
<!-- Node20 -->
<g id="node20" class="node"><title>Node20</title>
<g id="a_node20"><a xlink:href="_i_graphics_linux_8h_source.html" target="_top" xlink:title="IGraphicsLinux.h">
<polygon fill="white" stroke="black" points="1170.79,-112.5 1170.79,-131.5 1260.79,-131.5 1260.79,-112.5 1170.79,-112.5"/>
<text text-anchor="middle" x="1215.79" y="-119.5" font-family="Helvetica,sans-Serif" font-size="10.00">IGraphicsLinux.h</text>
</a>
</g>
</g>
<!-- Node18&#45;&gt;Node20 -->
<g id="edge24" class="edge"><title>Node18&#45;&gt;Node20</title>
<path fill="none" stroke="midnightblue" d="M1136.6,-163.726C1156.04,-153.727 1182.13,-140.307 1198.96,-131.655"/>
<polygon fill="midnightblue" stroke="midnightblue" points="1134.95,-160.638 1127.66,-168.324 1138.15,-166.863 1134.95,-160.638"/>
</g>
<!-- Node21 -->
<g id="node21" class="node"><title>Node21</title>
<g id="a_node21"><a xlink:href="_i_graphics_mac_8h_source.html" target="_top" xlink:title="IGraphicsMac.h">
<polygon fill="white" stroke="black" points="964.786,-112.5 964.786,-131.5 1050.79,-131.5 1050.79,-112.5 964.786,-112.5"/>
<text text-anchor="middle" x="1007.79" y="-119.5" font-family="Helvetica,sans-Serif" font-size="10.00">IGraphicsMac.h</text>
</a>
</g>
</g>
<!-- Node18&#45;&gt;Node21 -->
<g id="edge25" class="edge"><title>Node18&#45;&gt;Node21</title>
<path fill="none" stroke="midnightblue" d="M1085.21,-163.59C1066.16,-153.605 1040.72,-140.267 1024.29,-131.655"/>
<polygon fill="midnightblue" stroke="midnightblue" points="1083.76,-166.78 1094.24,-168.324 1087.01,-160.581 1083.76,-166.78"/>
</g>
<!-- Node23 -->
<g id="node23" class="node"><title>Node23</title>
<g id="a_node23"><a xlink:href="_i_graphics_win_8h_source.html" target="_top" xlink:title="IGraphicsWin.h">
<polygon fill="white" stroke="black" points="1068.79,-112.5 1068.79,-131.5 1152.79,-131.5 1152.79,-112.5 1068.79,-112.5"/>
<text text-anchor="middle" x="1110.79" y="-119.5" font-family="Helvetica,sans-Serif" font-size="10.00">IGraphicsWin.h</text>
</a>
</g>
</g>
<!-- Node18&#45;&gt;Node23 -->
<g id="edge30" class="edge"><title>Node18&#45;&gt;Node23</title>
<path fill="none" stroke="midnightblue" d="M1110.79,-157.805C1110.79,-148.91 1110.79,-138.78 1110.79,-131.751"/>
<polygon fill="midnightblue" stroke="midnightblue" points="1107.29,-158.083 1110.79,-168.083 1114.29,-158.083 1107.29,-158.083"/>
</g>
<!-- Node19&#45;&gt;Node8 -->
<g id="edge22" class="edge"><title>Node19&#45;&gt;Node8</title>
<path fill="none" stroke="midnightblue" d="M1299,-108.063C1267.48,-93.7835 1214.3,-70.8568 1166.79,-56 1115.59,-39.9914 1055.38,-27.2934 1014.3,-19.5224"/>
<polygon fill="midnightblue" stroke="midnightblue" points="1297.88,-111.402 1308.43,-112.374 1300.79,-105.035 1297.88,-111.402"/>
</g>
<!-- Node19&#45;&gt;Node10 -->
<g id="edge23" class="edge"><title>Node19&#45;&gt;Node10</title>
<path fill="none" stroke="midnightblue" d="M1282.62,-109.959C1241.83,-99.7598 1182.07,-84.8217 1144.85,-75.5164"/>
<polygon fill="midnightblue" stroke="midnightblue" points="1282.01,-113.414 1292.56,-112.444 1283.71,-106.623 1282.01,-113.414"/>
</g>
<!-- Node21&#45;&gt;Node8 -->
<g id="edge26" class="edge"><title>Node21&#45;&gt;Node8</title>
<path fill="none" stroke="midnightblue" d="M1002.98,-102.701C999.325,-89.5305 993.892,-71.4397 987.786,-56 982.669,-43.0613 975.355,-28.7178 970.588,-19.7797"/>
<polygon fill="midnightblue" stroke="midnightblue" points="999.626,-103.699 1005.61,-112.441 1006.38,-101.874 999.626,-103.699"/>
</g>
<!-- Node22 -->
<g id="node22" class="node"><title>Node22</title>
<g id="a_node22"><a xlink:href="_i_graphics_mac__view_8h_source.html" target="_top" xlink:title="IGraphicsMac_view.h">
<polygon fill="white" stroke="black" points="868.286,-56.5 868.286,-75.5 979.286,-75.5 979.286,-56.5 868.286,-56.5"/>
<text text-anchor="middle" x="923.786" y="-63.5" font-family="Helvetica,sans-Serif" font-size="10.00">IGraphicsMac_view.h</text>
</a>
</g>
</g>
<!-- Node21&#45;&gt;Node22 -->
<g id="edge27" class="edge"><title>Node21&#45;&gt;Node22</title>
<path fill="none" stroke="midnightblue" d="M985.854,-106.901C970.451,-96.9986 950.34,-84.0705 937.249,-75.6545"/>
<polygon fill="midnightblue" stroke="midnightblue" points="983.986,-109.86 994.29,-112.324 987.771,-103.972 983.986,-109.86"/>
</g>
<!-- Node22&#45;&gt;Node8 -->
<g id="edge28" class="edge"><title>Node22&#45;&gt;Node8</title>
<path fill="none" stroke="midnightblue" d="M936.897,-48.144C944.214,-38.7357 953.027,-27.4046 958.98,-19.7511"/>
<polygon fill="midnightblue" stroke="midnightblue" points="934.098,-46.0406 930.722,-56.083 939.624,-50.3383 934.098,-46.0406"/>
</g>
<!-- Node22&#45;&gt;Node9 -->
<g id="edge29" class="edge"><title>Node22&#45;&gt;Node9</title>
<path fill="none" stroke="midnightblue" d="M857.738,-55.9247C783.552,-45.7312 664.117,-29.3203 591.978,-19.408"/>
<polygon fill="midnightblue" stroke="midnightblue" points="857.513,-59.4265 867.896,-57.3205 858.466,-52.4917 857.513,-59.4265"/>
</g>
<!-- Node23&#45;&gt;Node10 -->
<g id="edge31" class="edge"><title>Node23&#45;&gt;Node10</title>
<path fill="none" stroke="midnightblue" d="M1110.79,-101.805C1110.79,-92.9102 1110.79,-82.7798 1110.79,-75.7511"/>
<polygon fill="midnightblue" stroke="midnightblue" points="1107.29,-102.083 1110.79,-112.083 1114.29,-102.083 1107.29,-102.083"/>
</g>
<!-- Node24&#45;&gt;Node17 -->
<g id="edge33" class="edge"><title>Node24&#45;&gt;Node17</title>
<path fill="none" stroke="midnightblue" d="M927.492,-161.002C917.746,-151.433 905.733,-139.639 897.699,-131.751"/>
<polygon fill="midnightblue" stroke="midnightblue" points="925.116,-163.575 934.704,-168.083 930.021,-158.58 925.116,-163.575"/>
</g>
</g>
</svg>
        <g id="navigator" transform="translate(0 0)" fill="#404254">
                <rect fill="#f2f5e9" fill-opacity="0.5" stroke="#606060" stroke-width=".5" x="0" y="0" width="60" height="60"/>
                <use id="zoomplus" xlink:href="#zoomPlus" x="17" y="9" onmousedown="handleZoom(evt,'in')"/>
                <use id="zoomminus" xlink:href="#zoomMin" x="42" y="9" onmousedown="handleZoom(evt,'out')"/>
                <use id="reset" xlink:href="#resetDef" x="30" y="36" onmousedown="handleReset()"/>
                <g id="arrowUp" xlink:href="#dirArrow" transform="translate(30 24)" onmousedown="handlePan(0,-1)">
                  <use xlink:href="#rim" fill="#404040">
                        <set attributeName="fill" to="#808080" begin="arrowUp.mouseover" end="arrowUp.mouseout"/>
                  </use>
                  <path fill="none" stroke="white" stroke-width="1.5" d="M0,-3.0v7 M-2.5,-0.5L0,-3.0L2.5,-0.5"/>
                </g>
                <g id="arrowRight" xlink:href="#dirArrow" transform="rotate(90) translate(36 -43)" onmousedown="handlePan(1,0)">
                  <use xlink:href="#rim" fill="#404040">
                        <set attributeName="fill" to="#808080" begin="arrowRight.mouseover" end="arrowRight.mouseout"/>
                  </use>
                  <path fill="none" stroke="white" stroke-width="1.5" d="M0,-3.0v7 M-2.5,-0.5L0,-3.0L2.5,-0.5"/>
                </g>
                <g id="arrowDown" xlink:href="#dirArrow" transform="rotate(180) translate(-30 -48)" onmousedown="handlePan(0,1)">
                  <use xlink:href="#rim" fill="#404040">
                        <set attributeName="fill" to="#808080" begin="arrowDown.mouseover" end="arrowDown.mouseout"/>
                  </use>
                  <path fill="none" stroke="white" stroke-width="1.5" d="M0,-3.0v7 M-2.5,-0.5L0,-3.0L2.5,-0.5"/>
                </g>
                <g id="arrowLeft" xlink:href="#dirArrow" transform="rotate(270) translate(-36 17)" onmousedown="handlePan(-1,0)">
                  <use xlink:href="#rim" fill="#404040">
                        <set attributeName="fill" to="#808080" begin="arrowLeft.mouseover" end="arrowLeft.mouseout"/>
                  </use>
                  <path fill="none" stroke="white" stroke-width="1.5" d="M0,-3.0v7 M-2.5,-0.5L0,-3.0L2.5,-0.5"/>
                </g>
        </g>
        <svg viewBox="0 0 15 15" width="100%" height="30px" preserveAspectRatio="xMaxYMin meet">
         <g id="arrow_out" transform="scale(0.3 0.3)">
          <a xlink:href="_i_graphics_8h__dep__incl_org.svg" target="_base">
           <rect id="button" ry="5" rx="5" y="6" x="6" height="38" width="38"
                fill="#f2f5e9" fill-opacity="0.5" stroke="#606060" stroke-width="1.0"/>
           <path id="arrow"
             d="M 11.500037,31.436501 C 11.940474,20.09759 22.043105,11.32322 32.158766,21.979434 L 37.068811,17.246167 C 37.068811,17.246167 37.088388,32 37.088388,32 L 22.160133,31.978069 C 22.160133,31.978069 26.997745,27.140456 26.997745,27.140456 C 18.528582,18.264221 13.291696,25.230495 11.500037,31.436501 z"
             style="fill:#404040;"/>
          </a>
         </g>
        </svg>
</svg>
